<svg width="608" height="471" viewBox="0 0 608 471" fill="none" xmlns="http://www.w3.org/2000/svg">
<path d="M528.571 470.385C495.269 464.451 437.385 434.145 472.267 360.392C515.869 268.2 510.707 263.968 377.418 215.617C244.129 167.267 226.77 97.8942 266.519 65.1926C300.315 37.3891 394.72 54.497 363.318 142.251C331.916 230.006 122.704 215.865 68.4275 46.8853" stroke="url(#paint0_linear_10_13)"/>
<path fill-rule="evenodd" clip-rule="evenodd" d="M73.5382 87.6352L70.5424 87.793L69.1154 60.6986C68.7042 60.6475 68.3015 60.5669 67.9097 60.4587L56.0211 83.5509L53.3538 82.1777L65.2042 59.1599C64.8387 58.8962 64.4946 58.604 64.1754 58.2863L42.1706 73.2648L40.4825 70.7848L62.4546 55.8286C62.1374 55.1423 61.9085 54.4051 61.7832 53.6307L34.7204 54.7083L34.6011 51.7107L61.8302 50.6265C61.9242 50.1456 62.059 49.6785 62.2309 49.2291L37.6817 36.9981L39.0195 34.3129L63.7877 46.653C64.0883 46.3108 64.4163 45.9928 64.7683 45.7023L48.7652 22.5447L51.2332 20.8392L67.3958 44.2275C67.6693 44.1331 67.9493 44.0522 68.2351 43.9857L66.7556 15.8927L69.7514 15.7349L71.231 43.8279C71.8064 43.8993 72.3651 44.0288 72.9007 44.2103L86.3106 18.1633L88.9779 19.5365L75.5277 45.6617C75.8065 45.888 76.0709 46.1316 76.3191 46.3912L100.002 30.2704L101.69 32.7504L77.9781 48.8909C78.1283 49.2383 78.256 49.598 78.3595 49.9684L106.544 48.8462L106.663 51.8438L78.6457 52.9594C78.6176 53.3064 78.5685 53.648 78.4996 53.9828L103.464 66.4206L102.126 69.1058L77.3775 56.7755C77.1745 57.099 76.9503 57.4081 76.7065 57.7008L92.1661 80.0718L89.6981 81.7773L74.4 59.6399C73.696 60.044 72.9273 60.3508 72.1112 60.5409L73.5382 87.6352Z" fill="#83A17D"/>
<defs>
<linearGradient id="paint0_linear_10_13" x1="-9.33599" y1="-78.6995" x2="483.773" y2="406.8" gradientUnits="userSpaceOnUse">
<stop/>
<stop offset="0.553176" stop-color="white"/>
<stop offset="1" stop-opacity="0"/>
</linearGradient>
</defs>
</svg>
