<svg width="462" height="603" viewBox="0 0 462 603" fill="none" xmlns="http://www.w3.org/2000/svg">
<path fill-rule="evenodd" clip-rule="evenodd" d="M378.768 237.741L375.772 237.899L374.345 210.804C373.934 210.753 373.531 210.673 373.14 210.564L361.251 233.657L358.584 232.283L370.434 209.266C370.069 209.002 369.725 208.71 369.405 208.392L347.401 223.371L345.712 220.891L367.685 205.934C367.367 205.248 367.138 204.511 367.013 203.736L339.95 204.814L339.831 201.816L367.06 200.732C367.154 200.251 367.289 199.784 367.461 199.335L342.912 187.104L344.249 184.419L369.018 196.759C369.318 196.417 369.646 196.098 369.998 195.808L353.995 172.65L356.463 170.945L372.626 194.333C372.899 194.239 373.179 194.158 373.465 194.091L371.985 165.998L374.981 165.841L376.461 193.934C377.036 194.005 377.595 194.134 378.131 194.316L391.541 168.269L394.208 169.642L380.758 195.767C381.036 195.994 381.301 196.237 381.549 196.497L405.232 180.376L406.92 182.856L383.208 198.997C383.358 199.344 383.486 199.704 383.589 200.074L411.774 198.952L411.893 201.949L383.876 203.065C383.847 203.412 383.798 203.754 383.729 204.089L408.694 216.526L407.356 219.212L382.607 206.881C382.404 207.205 382.18 207.514 381.936 207.806L397.396 230.177L394.928 231.883L379.63 209.746C378.926 210.15 378.157 210.457 377.341 210.647L378.768 237.741Z" fill="#83A17D"/>
<path d="M1.08716 71.0379C6.27477 104.465 35.2787 163.012 109.793 129.789C202.937 88.2597 207.053 93.5149 252.41 227.852C297.767 362.19 366.734 381.095 400.317 342.088C428.869 308.923 413.877 214.159 325.442 243.59C237.008 273.021 246.465 482.497 414.189 540.539" stroke="url(#paint0_linear_12_13)"/>
<defs>
<linearGradient id="paint0_linear_12_13" x1="538.003" y1="621.092" x2="63.6539" y2="117.247" gradientUnits="userSpaceOnUse">
<stop offset="0.203415" stop-color="#143C3C"/>
<stop offset="0.553176" stop-color="white"/>
<stop offset="1" stop-opacity="0"/>
</linearGradient>
</defs>
</svg>
